# xmcd CD database file
#
# Track frame offsets:
#	150
#	15794
#	37390
#	50636
#	89796
#	123655
#	154565
#	172037
#	192844
#	220860
#	231536
#	243819
#	257649
#	275210
#	289391
#	305251
#	328734
#
# Disc length: 4872 seconds
#
# Revision: 0
# Processed by: cddbd v1.5.2PL0 Copyright (c) Steve Scherf et al.
# Submitted via: CDex 1.51
#
DISCID=04130611
DTITLE=Ella Fitzgerald - In London (1-9) In Berlin (10-17)
DYEAR=1900
DGENRE=Jazz
TTITLE0=01-Sweet Georgia Brown
TTITLE1=02-They Can't Take That Away From
TTITLE2=03-Everytime We Say Goodbye
TTITLE3=04-The Man I Love
TTITLE4=05-It Don't Mean A Thing
TTITLE5=06-You've Got A Friend
TTITLE6=07-Lemon Drop
TTITLE7=08-The Very Thought of you
TTITLE8=09-Happy Blues
TTITLE9=01-Gone With The Wind
TTITLE10=02-Misty
TTITLE11=03-The Lady Is A Tramp
TTITLE12=04-The Man I Love
TTITLE13=06-Too Darn Hot
TTITLE14=07-Lorelei
TTITLE15=08-Mack The Knife
TTITLE16=09-How High The Moon
EXTD=
EXTT0=
EXTT1=
EXTT2=
EXTT3=
EXTT4=
EXTT5=
EXTT6=
EXTT7=
EXTT8=
EXTT9=
EXTT10=
EXTT11=
EXTT12=
EXTT13=
EXTT14=
EXTT15=
EXTT16=
PLAYORDER=
